<svg width="71" height="58" viewBox="0 0 71 58" fill="none" xmlns="http://www.w3.org/2000/svg">
<path d="M70.1789 17.4773V56.3779C69.6784 57.6676 68.5813 58.3028 67.1954 57.86C63.2688 55.3578 59.6116 52.2781 55.7427 49.718C54.2606 48.7556 53.4137 48.1397 51.5466 48.005C42.7694 47.389 33.2993 48.4862 24.4644 48.005C19.1326 47.2158 16.5534 42.9042 17.0346 37.7072C17.2848 35.0702 20.6532 34.9932 21.2692 37.0912C21.5386 38.0536 21.2499 39.3048 21.3847 40.2864C21.6156 41.9803 23.3095 43.6356 25.0418 43.6934C33.819 44.0976 43.1351 43.1352 51.8546 43.6934C53.7024 43.8088 55.4155 44.3671 57.0131 45.3102L65.9058 51.6236V17.843C65.9058 17.7853 65.5978 16.8999 65.54 16.7651C64.4237 14.2821 61.7482 14.3206 59.1689 14.4553C56.5896 14.5901 52.894 14.6093 51.9123 14.4553C49.564 14.0896 49.4486 10.4517 52.0471 10.1437C54.6456 9.83576 62.6143 10.009 64.3274 10.5095C66.541 11.1446 68.331 12.8 69.3897 14.8018L70.2366 17.4966L70.1789 17.4773Z" fill="#D2CBB8"/>
<path d="M7.00635 0L51.7199 0.0384988C52.5861 0.365718 53.1443 1.1164 53.1636 2.05956V30.0272C52.8363 34.2426 49.5064 37.534 45.3103 37.8805C36.6678 38.5927 27.063 37.2645 18.3628 37.8805C9.6626 38.4964 16.1685 38.4194 14.9366 39.2086C10.8945 41.8071 7.17958 44.9831 3.15671 47.6008C1.73234 48.3323 0.0577446 47.3506 0 45.753V7.44906C0.481205 3.63791 3.2722 0.731435 7.0256 0.0577482L7.00635 0ZM48.8135 4.29235H7.39131C6.35191 4.29235 4.29235 6.48665 4.29235 7.52606V41.4606C8.66169 38.8044 12.5113 34.2811 17.7661 33.5304H45.0023C46.5422 33.6074 48.8135 31.6633 48.8135 30.1427V4.27311V4.29235Z" fill="#D2CBB8"/>
<path d="M15.3594 11.6842L40.3821 11.6457C43.0383 11.8382 43.5388 15.3606 40.8248 15.9766H15.1669C12.6454 15.4569 12.8187 12.0499 15.3594 11.6842Z" fill="#D2CBB8"/>
<path d="M15.3594 21.7694L40.3821 21.7309C43.0383 21.9234 43.5388 25.4458 40.8248 26.0618H15.1669C12.6454 25.5421 12.8187 22.1352 15.3594 21.7694Z" fill="#D2CBB8"/>
</svg>
