<svg width="68" height="68" viewBox="0 0 68 68" fill="none" xmlns="http://www.w3.org/2000/svg">
<path d="M13.6 31.4169L13.5214 36.576C8.28384 37.7806 5.08892 41.4731 5.63887 47.0249C6.18881 52.5767 9.59324 54.0695 13.1286 54.4623C13.7571 54.5408 16.7949 54.5932 17.2663 54.4623C17.7377 54.3313 17.8948 53.4671 17.7639 53.0481C17.6329 52.6291 16.1664 51.6602 15.826 50.796C14.6999 48.0201 17.6591 45.5584 20.1993 47.4177C21.5611 48.4129 27.2701 54.1218 28.2652 55.4836C29.2604 56.8454 29.0771 58.181 27.9772 59.5689C26.8773 60.9569 21.7968 66.1683 20.3041 67.2158C17.6067 69.1275 14.3333 66.5611 15.9307 63.6542C16.4807 62.6591 18.5495 61.4806 17.3972 60.3546C16.245 59.2285 14.0714 60.1451 13.1024 60.0665C-1.19618 59.019 -5.01962 39.0376 7.81246 32.6739C8.65047 32.2549 13.0239 30.6313 13.5738 31.4169H13.6Z" fill="#D2CBB8"/>
<path d="M54.453 7.92593C59.2978 7.92593 64.064 11.278 66.29 15.468C71.2395 24.7909 64.8758 35.8946 54.5054 36.7588C53.5364 36.8374 50.97 36.5493 50.4463 37.0731C49.1892 38.3301 51.52 39.3776 52.0175 40.2942C53.4841 42.9392 50.3415 45.9246 47.6704 43.8557C46.0205 42.5987 40.8615 37.4397 39.6045 35.7899C38.3474 34.14 38.6355 33.8258 39.2378 32.6211C39.8402 31.4165 46.649 24.9219 47.6704 24.1363C50.2106 22.1984 53.2222 24.5814 52.0961 27.3835C50.97 30.1856 49.294 29.5833 50.3677 30.8142C51.3105 31.8879 56.0767 30.8665 57.3599 30.2642C64.0902 27.0431 63.9854 17.3536 57.2289 14.1849C56.6004 13.8968 54.4792 13.3992 54.3221 13.0849C54.7935 11.278 54.4268 9.68052 54.453 7.92593Z" fill="#D2CBB8"/>
<path d="M0.741448 8.58032C1.18664 8.13512 2.15559 7.79467 2.75791 7.7161C7.05273 7.24472 12.1594 8.10892 16.5066 7.7161C19.7801 7.42804 16.0876 4.88782 15.7471 3.86649C14.9091 1.35245 17.1875 -0.821153 19.5182 0.304928C21.8489 1.43101 26.4842 6.72097 27.5317 8.00418C28.5792 9.28739 29.5482 10.623 28.3173 12.4037C27.296 13.8703 22.1632 18.8198 20.6443 20.0768C19.1254 21.3338 18.2088 21.779 16.6637 20.6791C15.1186 19.5792 15.1972 18.4008 15.7209 17.1438C16.2447 15.8867 18.7325 15.1535 17.3708 13.6084C12.7879 13.1632 7.86456 13.8703 3.33405 13.5298C-1.19646 13.1894 2.05084 13.3727 1.65803 13.2156C-0.0180019 12.5609 -0.515572 9.83733 0.741448 8.6065V8.58032Z" fill="#D2CBB8"/>
<path d="M35.9116 36.7848H29.4432C27.6624 39.7441 25.0436 41.1058 21.5606 40.4773C19.4394 40.0845 17.0563 37.7276 16.6897 35.6064C15.197 27.3572 25.6983 24.0052 29.4432 31.2068H35.8069C36.4354 31.2068 35.545 33.4066 35.545 33.9042C35.545 34.8993 36.2259 35.8683 35.9116 36.7848Z" fill="#D2CBB8"/>
<path d="M31.9314 13.2936C31.6695 12.4032 32.3504 11.5651 32.3504 10.5962C32.3504 9.62723 31.5648 7.71552 32.2457 7.71552H38.5046C40.2592 3.34213 46.6752 2.55651 49.6607 6.22282C55.9196 13.9221 43.0351 22.4855 38.2165 13.2936H31.9576H31.9314Z" fill="#D2CBB8"/>
<path d="M38.2166 54.4876C41.2021 48.4906 50.6821 49.8786 51.0749 56.766C51.4939 64.4391 41.5687 66.7174 38.2166 60.0657H32.0363C31.3816 60.0657 32.0887 58.3635 32.141 57.9706C32.1934 57.5778 32.141 57.0279 32.141 56.5827C32.141 56.1375 31.4078 54.4615 32.0625 54.4615H38.2428L38.2166 54.4876Z" fill="#D2CBB8"/>
<path d="M54.531 54.4875H65.687C65.7656 54.4875 67.0488 55.2207 67.1798 55.3779C68.2011 56.4516 68.1225 58.2324 67.0488 59.2537C65.9751 60.275 65.7394 60.0655 65.6608 60.0655H54.5048C53.9548 60.0655 54.4 58.3895 54.4262 57.9967C54.4262 56.9753 54.4262 56.0064 54.2167 55.0112L54.531 54.5137V54.4875Z" fill="#D2CBB8"/>
</svg>
