<svg width="294" height="48" viewBox="0 0 294 48" fill="none" xmlns="http://www.w3.org/2000/svg">
<path d="M33.7903 45.4926H8.26578C3.71083 45.4926 0 41.7817 0 37.2268V22.559C0 12.0115 8.57502 3.43652 19.1225 3.43652H22.9419C33.4894 3.43652 42.0644 12.0115 42.0644 22.559V37.2268C42.0644 41.7817 38.3536 45.4926 33.7986 45.4926H33.7903ZM19.1225 5.14986C9.51944 5.14986 1.71333 12.956 1.71333 22.559V37.2268C1.71333 40.8373 4.65525 43.7792 8.26578 43.7792H33.7903C37.4008 43.7792 40.3427 40.8373 40.3427 37.2268V22.559C40.3427 12.9643 32.5366 5.14986 22.9336 5.14986H19.1141H19.1225Z" fill="#FAE9C2"/>
<path d="M40.4431 0.185498C40.3678 -0.0903067 39.9917 0.0183437 39.9332 0.0350591C33.2638 1.53945 27.9232 7.42328 24.0703 17.5361C23.6608 18.6059 23.2763 19.7091 22.8918 20.7706C22.1564 22.8349 21.4042 24.9745 20.4681 26.9887C17.8438 32.6719 13.3724 36.8174 7.17934 39.2996C7.05397 39.3498 6.97875 39.4751 7.00383 39.6089C7.0289 39.7426 7.13755 39.8429 7.27127 39.8512C7.58887 39.8679 8.01511 39.8847 8.37449 39.8847C8.50822 39.8847 8.64194 39.8847 8.75059 39.8847C9.39413 39.8596 10.0711 39.7844 10.8317 39.659C16.8325 38.6895 22.4071 35.2378 26.1263 30.1813C29.0431 26.2198 30.4054 21.4559 31.726 16.8508C33.2471 11.5436 34.8183 6.06097 38.7715 1.94898C39.064 1.6481 39.7494 0.971123 40.1004 0.670246C40.184 0.595026 40.4848 0.369368 40.4347 0.17714L40.4431 0.185498Z" fill="#FAE9C2"/>
<path d="M55.2863 18.2298H47.965V16.9009C47.965 15.7141 48.7088 14.9619 49.8956 14.9619H66.5692V16.2908C66.5692 17.4442 65.792 18.2298 64.6386 18.2298H59.181V37.9038C59.181 39.0906 58.4038 39.8428 57.2504 39.8428H55.2863V18.2298Z" fill="#FAE9C2"/>
<path d="M70.514 14.9707H81.6632C86.611 14.9707 90.0377 18.4392 90.0377 23.3619C90.0377 27.198 87.8981 30.2235 83.97 30.9757L90.4472 39.8433H87.3632C86.4438 39.8433 85.6331 39.4672 85.0899 38.6899L79.9415 31.4521H74.4171V37.8374C74.4171 39.0576 73.6398 39.8433 72.4196 39.8433H70.5224V14.9707H70.514ZM81.1534 28.226C83.4267 28.226 86.168 26.7634 86.168 23.295C86.168 21.2891 85.0481 18.2302 81.1534 18.2302H74.4087V28.2177H81.1534V28.226Z" fill="#FAE9C2"/>
<path d="M104.739 14.9707H105.959L118.295 39.8433H115.512C114.526 39.8433 113.749 39.3669 113.306 38.481L111.709 35.1128H98.9973L97.3675 38.481C96.958 39.3669 96.1473 39.8433 95.1611 39.8433H92.4114L104.714 14.9707H104.739ZM110.464 32.196L105.349 21.2557L100.268 32.196H110.472H110.464Z" fill="#FAE9C2"/>
<path d="M113.406 14.9707H116.156C117.209 14.9707 117.986 15.4805 118.395 16.4333L125.341 32.6055L132.428 16.4333C132.838 15.4805 133.615 14.9707 134.634 14.9707H137.309L125.917 39.8433H124.764L113.406 14.9707Z" fill="#FAE9C2"/>
<path d="M140.602 14.9707H158.061V16.3664C158.061 17.5532 157.384 18.2386 156.164 18.2386H144.505V25.9527H155.186V27.2816C155.186 28.5018 154.509 29.1872 153.289 29.1872H144.513V36.5921H156.139C157.326 36.5921 158.069 37.3777 158.069 38.5311V39.86H140.61V14.9874L140.602 14.9707Z" fill="#FAE9C2"/>
<path d="M162.039 14.9707H164.037C165.19 14.9707 165.968 15.7145 165.968 16.9097V36.5838H176.716C177.869 36.5838 178.646 37.3694 178.646 38.5228V39.8516H162.039V14.9791V14.9707Z" fill="#FAE9C2"/>
<path d="M199.39 27.407C199.39 20.303 204.647 14.4609 212.169 14.4609C219.691 14.4609 225.015 20.303 225.015 27.407C225.015 34.5111 219.724 40.3531 212.169 40.3531C204.614 40.3531 199.39 34.5445 199.39 27.407ZM212.169 36.9933C217.284 36.9933 221.12 32.6473 221.12 27.407C221.12 22.1668 217.292 17.8207 212.169 17.8207C207.046 17.8207 203.285 22.242 203.285 27.407C203.285 32.5721 207.079 36.9933 212.169 36.9933Z" fill="#FAE9C2"/>
<path d="M230.08 14.9707H232.077C233.23 14.9707 234.008 15.7145 234.008 16.9097V36.5838H244.756C245.909 36.5838 246.686 37.3694 246.686 38.5228V39.8516H230.08V14.9791V14.9707Z" fill="#FAE9C2"/>
<path d="M250.648 14.9707H252.645C253.799 14.9707 254.576 15.7145 254.576 16.9097V36.5838H265.324C266.477 36.5838 267.255 37.3694 267.255 38.5228V39.8516H250.648V14.9791V14.9707Z" fill="#FAE9C2"/>
<path d="M267.965 27.407C267.965 20.303 273.222 14.4609 280.744 14.4609C288.266 14.4609 293.59 20.303 293.59 27.407C293.59 34.5111 288.299 40.3531 280.744 40.3531C273.189 40.3531 267.965 34.5445 267.965 27.407ZM280.744 36.9933C285.859 36.9933 289.695 32.6473 289.695 27.407C289.695 22.1668 285.867 17.8207 280.744 17.8207C275.621 17.8207 271.86 22.242 271.86 27.407C271.86 32.5721 275.654 36.9933 280.744 36.9933Z" fill="#FAE9C2"/>
<path d="M190.564 27.0385L184.296 16.1651C183.803 15.3126 183.026 14.8613 182.048 14.8613H178.838L188.968 31.6854C188.968 31.6854 189.001 31.6186 189.01 31.5851L189.052 31.4932C189.645 30.1643 190.222 28.8271 190.472 27.3561C190.472 27.331 190.481 27.306 190.489 27.2893C190.506 27.2057 190.531 27.1221 190.556 27.0469L190.564 27.0385Z" fill="#FAE9C2"/>
<path d="M172.236 48C173.489 47.9081 183.544 47.7995 189.419 38.397C195.178 29.1868 193.289 19.6841 202.566 11.2929C202.65 11.2177 203.301 10.616 203.477 10.4321C203.527 10.382 203.494 10.382 203.418 10.3987C203.301 10.4237 203.184 10.4572 203.076 10.4822C195.512 12.4212 191.066 20.1939 188.466 26.9887C187.313 30.0142 186.369 33.1233 185.015 36.0652C182.407 41.7234 177.961 45.6432 172.219 47.9666C172.186 47.9833 172.177 47.9917 172.244 47.9917L172.236 48Z" fill="#FAE9C2"/>
</svg>
