<svg width="614" height="732" viewBox="0 0 614 732" fill="none" xmlns="http://www.w3.org/2000/svg">
<path d="M614 3.40443C612.619 -1.65739 605.714 0.33666 604.64 0.643437C482.195 28.2534 384.147 136.239 313.412 321.839C305.893 341.473 298.835 361.72 291.777 381.2C278.274 419.087 264.465 458.355 247.279 495.321C199.099 599.626 117.009 675.706 3.31043 721.263C1.00884 722.183 -0.372121 724.484 0.0881978 726.938C0.548517 729.392 2.54323 731.233 4.99826 731.386C10.829 731.693 18.6544 732 25.2523 732C27.7073 732 30.1624 732 32.1571 732C43.9719 731.54 56.4005 730.159 70.3635 727.858C180.533 710.065 282.877 646.716 351.158 553.916C404.708 481.21 429.719 393.778 453.963 309.261C481.889 211.859 510.735 111.237 583.312 35.7694C588.682 30.2474 601.265 17.823 607.709 12.301C609.243 10.9205 614.767 6.77898 613.847 3.25104L614 3.40443Z" fill="#F2F2F2"/>
</svg>
