<svg width="637" height="104" viewBox="0 0 637 104" fill="none" xmlns="http://www.w3.org/2000/svg">
<path d="M73.2122 98.5667H17.9092C8.04012 98.5667 0 90.5266 0 80.6575V48.8773C0 26.0245 18.5792 7.44531 41.432 7.44531H49.7075C72.5603 7.44531 91.1395 26.0245 91.1395 48.8773V80.6575C91.1395 90.5266 83.0994 98.5667 73.2303 98.5667H73.2122ZM41.432 11.1575C20.6254 11.1575 3.71222 28.0708 3.71222 48.8773V80.6575C3.71222 88.4803 10.0864 94.8545 17.9092 94.8545H73.2122C81.035 94.8545 87.4092 88.4803 87.4092 80.6575V48.8773C87.4092 28.0889 70.4959 11.1575 49.6894 11.1575H41.4139H41.432Z" fill="white"/>
<path d="M87.6266 0.401912C87.4636 -0.195664 86.6487 0.0397446 86.522 0.0759614C72.0715 3.33547 60.5002 16.0838 52.1523 37.9949C51.265 40.3128 50.432 42.7031 49.599 45.0029C48.0055 49.4756 46.3757 54.1114 44.3476 58.4755C38.6615 70.7892 28.9735 79.771 15.5552 85.1491C15.2836 85.2578 15.1206 85.5294 15.175 85.8192C15.2293 86.1089 15.4647 86.3262 15.7544 86.3443C16.4425 86.3805 17.3661 86.4167 18.1447 86.4167C18.4345 86.4167 18.7242 86.4167 18.9596 86.4167C20.354 86.3624 21.8207 86.1994 23.4686 85.9278C36.4704 83.8272 48.5487 76.3485 56.6069 65.3929C62.9268 56.8095 65.8784 46.4877 68.7396 36.51C72.0353 25.0112 75.4397 13.1321 84.0049 4.22278C84.6387 3.57088 86.1236 2.1041 86.8842 1.4522C87.0652 1.28922 87.7171 0.800297 87.6085 0.383804L87.6266 0.401912Z" fill="white"/>
<path d="M119.787 39.4964H103.924V36.6172C103.924 34.0458 105.536 32.416 108.107 32.416H144.233V35.2952C144.233 37.7942 142.549 39.4964 140.05 39.4964H128.226V82.1235C128.226 84.6949 126.541 86.3247 124.042 86.3247H119.787V39.4964Z" fill="white"/>
<path d="M152.78 32.4336H176.937C187.657 32.4336 195.082 39.9486 195.082 50.6144C195.082 58.9262 190.446 65.4814 181.935 67.1112L195.969 86.3241H189.287C187.295 86.3241 185.538 85.5093 184.361 83.8252L173.207 68.1433H161.237V81.9781C161.237 84.622 159.553 86.3241 156.909 86.3241H152.798V32.4336H152.78ZM175.832 61.1535C180.758 61.1535 186.697 57.9845 186.697 50.4695C186.697 46.1235 184.271 39.4959 175.832 39.4959H161.219V61.1354H175.832V61.1535Z" fill="white"/>
<path d="M226.934 32.4336H229.578L256.306 86.3241H250.276C248.139 86.3241 246.455 85.292 245.496 83.3725L242.037 76.0748H214.494L210.963 83.3725C210.076 85.292 208.319 86.3241 206.182 86.3241H200.225L226.88 32.4336H226.934ZM239.339 69.755L228.256 46.0511L217.246 69.755H239.357H239.339Z" fill="white"/>
<path d="M245.713 32.4336H251.67C253.952 32.4336 255.636 33.5382 256.523 35.6026L271.571 70.6423L286.927 35.6026C287.815 33.5382 289.499 32.4336 291.708 32.4336H297.503L272.821 86.3241H270.322L245.713 32.4336Z" fill="white"/>
<path d="M304.637 32.4336H342.465V35.4577C342.465 38.0291 340.999 39.514 338.355 39.514H313.094V56.228H336.236V59.1072C336.236 61.7511 334.769 63.2359 332.126 63.2359H313.112V79.28H338.301C340.872 79.28 342.484 80.9822 342.484 83.4811V86.3604H304.655V32.4698L304.637 32.4336Z" fill="white"/>
<path d="M351.085 32.4336H355.413C357.912 32.4336 359.596 34.0452 359.596 36.6347V79.2619H382.884C385.383 79.2619 387.067 80.9641 387.067 83.463V86.3423H351.085V32.4517V32.4336Z" fill="white"/>
<path d="M432.012 59.38C432.012 43.9878 443.402 31.3301 459.699 31.3301C475.997 31.3301 487.532 43.9878 487.532 59.38C487.532 74.7721 476.069 87.4298 459.699 87.4298C443.329 87.4298 432.012 74.8445 432.012 59.38ZM459.699 80.1503C470.782 80.1503 479.094 70.7339 479.094 59.38C479.094 48.026 470.8 38.6096 459.699 38.6096C448.599 38.6096 440.45 48.189 440.45 59.38C440.45 70.5709 448.671 80.1503 459.699 80.1503Z" fill="white"/>
<path d="M498.506 32.4336H502.833C505.332 32.4336 507.017 34.0452 507.017 36.6347V79.2619H530.304C532.803 79.2619 534.487 80.9641 534.487 83.463V86.3423H498.506V32.4517V32.4336Z" fill="white"/>
<path d="M543.07 32.4336H547.398C549.897 32.4336 551.581 34.0452 551.581 36.6347V79.2619H574.869C577.368 79.2619 579.052 80.9641 579.052 83.463V86.3423H543.07V32.4517V32.4336Z" fill="white"/>
<path d="M580.591 59.38C580.591 43.9878 591.981 31.3301 608.279 31.3301C624.576 31.3301 636.111 43.9878 636.111 59.38C636.111 74.7721 624.649 87.4298 608.279 87.4298C591.909 87.4298 580.591 74.8445 580.591 59.38ZM608.279 80.1503C619.361 80.1503 627.673 70.7339 627.673 59.38C627.673 48.026 619.379 38.6096 608.279 38.6096C597.178 38.6096 589.03 48.189 589.03 59.38C589.03 70.5709 597.251 80.1503 608.279 80.1503Z" fill="white"/>
<path d="M412.889 58.5831L399.308 35.0241C398.24 33.1771 396.555 32.1992 394.437 32.1992H387.483L409.431 68.6514C409.431 68.6514 409.503 68.5065 409.521 68.4341L409.612 68.2349C410.897 65.3557 412.147 62.4583 412.69 59.2712C412.69 59.2169 412.708 59.1626 412.726 59.1264C412.762 58.9453 412.817 58.7642 412.871 58.6012L412.889 58.5831Z" fill="white"/>
<path d="M373.177 103.999C375.894 103.8 397.678 103.564 410.408 83.1926C422.885 63.2371 418.792 42.6479 438.893 24.4671C439.074 24.3041 440.486 23.0003 440.867 22.6019C440.975 22.4933 440.903 22.4933 440.74 22.5295C440.486 22.5838 440.233 22.6562 439.997 22.7106C423.609 26.9117 413.976 43.7525 408.344 58.4746C405.845 65.0299 403.799 71.7662 400.865 78.1403C395.215 90.3997 385.582 98.8925 373.141 103.927C373.069 103.963 373.051 103.981 373.196 103.981L373.177 103.999Z" fill="white"/>
</svg>
