<svg width="65" height="60" viewBox="0 0 65 60" fill="none" xmlns="http://www.w3.org/2000/svg">
<path d="M62.6118 60C63.5383 59.5189 64.0728 59.0378 64.1797 57.951V19.3754C64.0728 18.2529 63.3779 17.5223 62.2554 17.3085C57.8544 17.6649 52.7585 16.8453 48.4466 17.3263C44.1347 17.8074 44.0278 19.215 43.3507 21.2819C38.4865 20.2306 34.7269 15.1169 32.6957 10.8228C30.6644 6.52875 31.0386 4.80042 29.9339 1.7714C29.1678 -0.277652 26.9405 -0.0638388 25.0518 0.0965215C16.0717 0.827052 16.6596 10.217 17.7465 16.774C18.0138 18.3954 18.4414 19.9812 18.8334 21.5848H5.79079C2.76176 21.5848 0.0356369 25.0058 0 27.9101C0 29.5672 0.730534 30.9213 1.55015 32.2933C0.0534515 34.3245 -0.42762 36.5161 0.51672 38.9215C1.46106 41.3269 1.26506 40.151 1.55015 40.828C-1.38979 44.4629 0.124725 49.9329 4.70391 51.1802C3.54575 54.5299 5.00681 58.2539 8.37437 59.5367L9.97797 60H30.3615L34.5309 59.2517L43.2616 56.4364C43.5289 56.4543 44.1703 57.6124 44.4732 57.9331C45.4889 59.0378 46.7718 59.5902 48.1794 60H62.5761H62.6118ZM23.4304 21.567C22.5217 19.0547 21.8446 16.2038 21.5774 13.5311C21.3101 10.8585 20.6508 5.92295 24.1966 4.65788C24.6777 4.4797 25.9784 4.10553 26.2456 4.62225C27.0296 8.39962 28.3125 12.0701 30.2903 15.3842C32.9986 19.8921 37.3996 24.6316 42.7984 25.5938V51.9642L42.5667 52.178C38.433 53.3005 34.2102 55.4743 29.8983 55.7594C23.5017 56.187 16.5884 55.4921 10.1562 55.6881C8.606 55.1714 8.00019 53.2114 9.26526 52.0533C10.5303 50.8951 11.5459 51.7325 12.3656 50.7704C13.1852 49.8082 13.0426 48.953 12.4725 48.1155C11.1005 46.0843 6.45005 48.2581 4.88208 46.5476C4.11592 45.7101 4.11592 44.3916 4.93554 43.572C6.48568 42.0396 10.9758 43.9105 12.3656 42.2356C13.7554 40.5608 13.0426 40.0975 12.2943 39.3135C11.243 38.191 7.91111 38.8324 6.36096 38.6899C4.54354 38.5117 3.56356 36.3914 4.91771 35.0372C6.27186 33.6831 9.65726 34.8234 11.3856 34.3067C13.1139 33.79 13.3277 31.9013 12.2765 30.7788C10.8332 29.2465 6.43223 31.0461 4.8999 29.5315C3.5992 28.2308 4.47227 26.1462 6.2006 25.8789L28.259 25.8433C30.5219 25.3087 30.4328 21.9768 28.1343 21.6204C27.3503 21.4957 23.662 21.763 23.3948 21.5848L23.4304 21.567ZM48.7139 21.5848H59.9035V55.7237H48.7139C48.1972 55.7237 47.0034 54.4408 47.0747 53.7994L47.1459 23.1349C47.3063 22.547 48.1437 21.6917 48.7139 21.567V21.5848Z" fill="#D2CBB8"/>
<path d="M53.9519 47.2257C51.1189 46.6377 50.3527 50.8784 53.0254 51.4307C55.8584 52.0187 56.6246 47.7781 53.9519 47.2257Z" fill="#D2CBB8"/>
</svg>
