<svg width="48" height="76" viewBox="0 0 48 76" fill="none" xmlns="http://www.w3.org/2000/svg">
<path d="M33.7351 5.40152V17.6156H38.7619C43.5461 17.6156 47.4704 22.3777 47.757 26.9415C48.5287 38.8028 47.1618 51.4798 47.757 63.4293C47.2279 68.1473 43.7004 71.6308 39.0264 72.2922C39.3792 76.9 33.1399 76.9662 33.7351 72.2922H14.2676C14.8629 76.9882 8.60153 76.9221 8.97633 72.2922C4.32441 71.6308 0.774846 68.1473 0.245717 63.4293C0.81894 51.5018 -0.525928 38.8028 0.245717 26.9415C0.532329 22.3998 4.47876 17.6156 9.24091 17.6156H14.2676V5.40152C12.0188 5.68813 9.96847 3.68185 11.0929 1.49919C12.2393 -0.727554 15.0393 0.507081 16.9794 0H31.0013C32.9414 0.507081 35.6091 -0.68346 36.8438 1.38896C38.0784 3.46138 36.006 5.73223 33.7351 5.40152ZM28.4439 5.40152H19.5369V17.6156H28.4439V5.40152ZM6.72755 24.2738C6.02204 25.0234 5.51496 26.2359 5.51496 27.2501V62.7458C5.64724 65.1048 7.411 66.7584 9.72594 66.9568H38.2989C40.6359 66.7584 42.3114 65.1048 42.5099 62.7458V27.0958C41.7823 21.5399 35.8737 23.1053 31.8612 22.8848H17.8393C14.7968 23.3257 9.08657 21.8265 6.77163 24.2738H6.72755Z" fill="#D2CBB8"/>
<path d="M13.2311 28.2204C14.4657 28.1322 15.6342 29.0141 15.987 30.1606L16.0752 59.2847C15.6122 62.5256 11.0925 62.4815 10.7839 59.1303V30.5795C10.9823 29.3448 11.9524 28.3307 13.2311 28.2204Z" fill="#D2CBB8"/>
<path d="M23.7915 28.2204C25.0261 28.1322 26.1946 29.0141 26.5474 30.1606L26.6356 59.2847C26.1726 62.5256 21.6529 62.4815 21.3443 59.1303V30.5795C21.5427 29.3448 22.5128 28.3307 23.7915 28.2204Z" fill="#D2CBB8"/>
<path d="M34.3529 28.2204C35.5875 28.1322 36.756 29.0141 37.1088 30.1606L37.1969 59.2847C36.734 62.5256 32.2143 62.4815 31.9057 59.1303V30.5795C32.1041 29.3448 33.0742 28.3307 34.3529 28.2204Z" fill="#D2CBB8"/>
</svg>
