<svg width="403" height="480" viewBox="0 0 403 480" fill="none" xmlns="http://www.w3.org/2000/svg">
<g style="mix-blend-mode:hard-light" opacity="0.12">
<path d="M403 2.23241C402.094 -1.08681 397.562 0.220761 396.857 0.421926C316.49 18.5268 252.136 89.337 205.708 211.042C200.774 223.917 196.141 237.193 191.508 249.967C182.646 274.811 173.582 300.561 162.302 324.801C130.679 393.197 76.7992 443.086 2.17281 472.959C0.662151 473.563 -0.244242 475.071 0.0578888 476.681C0.36002 478.29 1.66925 479.497 3.28062 479.598C7.10761 479.799 12.2438 480 16.5744 480C18.1858 480 19.7971 480 21.1064 480C28.8611 479.698 37.0186 478.793 46.1832 477.284C118.493 465.617 185.667 424.076 230.483 363.224C265.631 315.547 282.047 258.215 297.959 202.794C316.288 138.924 335.222 72.942 382.858 23.4554C386.383 19.8344 394.641 11.6872 398.871 8.06621C399.878 7.16096 403.504 4.44523 402.899 2.13183L403 2.23241Z" fill="black"/>
</g>
</svg>
