<svg width="75" height="75" viewBox="0 0 75 75" fill="none" xmlns="http://www.w3.org/2000/svg">
<path d="M35.1993 0.0716205C64.8076 -1.71564 84.8336 30.3044 69.9756 56.1659C55.8928 80.7139 20.4705 81.2522 5.61253 57.178C-9.26699 33.1037 7.09834 1.77275 35.1993 0.0716205ZM34.8978 5.34728C19.3939 6.33782 6.32313 19.4085 5.35413 34.891H9.63927C10.6944 34.891 11.6849 36.5275 11.6634 37.5611C11.6419 38.5947 10.6083 40.059 9.63927 40.059H5.35413C6.32313 55.5414 19.4154 68.6337 34.8978 69.6027V65.3176C34.8978 64.2624 36.5344 63.2719 37.568 63.2934C38.6016 63.315 40.0658 64.3486 40.0658 65.3176V69.6027C55.5698 68.6122 68.6405 55.5414 69.6096 40.059H65.3244C64.2693 40.059 63.2788 38.4225 63.3003 37.3889C63.3218 36.3553 64.3554 34.891 65.3244 34.891H69.6096C68.6405 19.4085 55.5483 6.31628 40.0658 5.34728V9.63242C40.0658 10.623 38.5154 11.635 37.568 11.6565C36.6205 11.6781 34.8978 10.6875 34.8978 9.63242V5.34728Z" fill="#D2CBB8"/>
<path d="M55.2242 16.6959C57.1837 16.3299 58.7987 18.0956 58.2173 20.0121C54.8581 26.9027 51.6927 33.9011 48.2905 40.7702C47.5583 42.256 46.2663 45.5291 44.9313 46.2827L20.3618 58.0614C18.4884 58.9012 16.5073 57.5016 16.6365 55.4774C19.845 48.3499 23.2041 41.2009 26.671 34.181C27.2524 33.0182 28.4152 30.2189 29.1473 29.4006C29.8795 28.5823 33.0233 27.2473 34.1861 26.6874C41.1414 23.2636 48.2043 20.0121 55.2027 16.6959H55.2242ZM36.9639 34.9347C33.8416 35.4299 34.3799 40.6195 38.0191 40.0165C41.6582 39.4136 40.6031 34.3317 36.9639 34.9347Z" fill="#D2CBB8"/>
</svg>
