<svg width="116" height="116" viewBox="0 0 116 116" fill="none" xmlns="http://www.w3.org/2000/svg">
<path d="M58 116C50.1714 116 42.5761 114.466 35.4224 111.441C28.5153 108.519 22.3133 104.337 16.9875 99.0125C11.6626 93.6867 7.48092 87.4847 4.55951 80.5776C1.53432 73.4239 0 65.8277 0 58C0 50.1723 1.53432 42.5761 4.55951 35.4224C7.48092 28.5153 11.6626 22.3133 16.9875 16.9875C22.3133 11.6617 28.5153 7.48092 35.4224 4.55951C42.5752 1.53432 50.1714 0 58 0C65.8286 0 73.4239 1.53432 80.5776 4.55951C87.4847 7.48092 93.6867 11.6626 99.0125 16.9875C104.338 22.3124 108.519 28.5153 111.441 35.4224C114.466 42.5752 116 50.1714 116 58C116 65.8286 114.466 73.4239 111.441 80.5776C108.519 87.4847 104.337 93.6867 99.0125 99.0125C93.6867 104.338 87.4847 108.519 80.5776 111.441C73.4248 114.466 65.8286 116 58 116ZM58 7.7124C30.2714 7.7124 7.7124 30.2714 7.7124 58C7.7124 85.7286 30.2714 108.288 58 108.288C85.7286 108.288 108.288 85.7286 108.288 58C108.288 30.2714 85.7286 7.7124 58 7.7124Z" fill="#5EA83E"/>
<path d="M49.6053 82.9116H49.584C47.93 82.9054 46.3477 82.2358 45.1921 81.0527L25.7559 61.1535C23.3755 58.7163 23.4207 54.8096 25.8588 52.4292C28.2969 50.0479 32.2027 50.0949 34.5831 52.532L49.6363 67.9436L82.3538 34.9157C84.7519 32.4945 88.6578 32.4768 91.079 34.874C93.4993 37.2722 93.5179 41.1781 91.1198 43.5993L53.9883 81.0837C52.8291 82.2535 51.2514 82.9116 49.6053 82.9116Z" fill="#5EA83E"/>
</svg>
