<svg width="116" height="116" viewBox="0 0 116 116" fill="none" xmlns="http://www.w3.org/2000/svg">
<path d="M58 116C50.1714 116 42.5761 114.466 35.4224 111.44C28.5153 108.519 22.3133 104.337 16.9875 99.0125C11.6617 93.6876 7.48093 87.4847 4.55951 80.5776C1.53432 73.4248 0 65.8286 0 58C0 50.1714 1.53432 42.5761 4.55951 35.4224C7.48093 28.5153 11.6626 22.3133 16.9875 16.9875C22.3133 11.6617 28.5153 7.48092 35.4224 4.55951C42.5752 1.53432 50.1714 0 58 0C65.8286 0 73.4239 1.53432 80.5776 4.55951C87.4847 7.48092 93.6867 11.6626 99.0125 16.9875C104.338 22.3133 108.519 28.5153 111.44 35.4224C114.466 42.5752 116 50.1714 116 58C116 65.8286 114.466 73.4239 111.44 80.5776C108.519 87.4847 104.337 93.6867 99.0125 99.0125C93.6867 104.338 87.4847 108.519 80.5776 111.44C73.4248 114.466 65.8286 116 58 116ZM58 7.7124C30.2714 7.7124 7.7124 30.2714 7.7124 58C7.7124 85.7286 30.2714 108.288 58 108.288C85.7286 108.288 108.288 85.7286 108.288 58C108.288 30.2714 85.7286 7.7124 58 7.7124Z" fill="#E6212B"/>
<path d="M66.7242 58.0009L82.5384 42.1868C84.9481 39.7771 84.9481 35.8712 82.5384 33.4616C80.1287 31.0519 76.2228 31.0519 73.8131 33.4616L57.999 49.2757L42.1848 33.4616C39.7752 31.0519 35.8693 31.0519 33.4596 33.4616C31.0499 35.8712 31.0499 39.7771 33.4596 42.1868L49.2738 58.0009L33.4596 73.8151C31.0499 76.2248 31.0499 80.1306 33.4596 82.5403C34.6649 83.7456 36.2427 84.3478 37.8222 84.3478C39.4018 84.3478 40.9805 83.7456 42.1848 82.5403L57.999 66.7262L73.8131 82.5403C75.0175 83.7447 76.5971 84.3478 78.1758 84.3478C79.7544 84.3478 81.334 83.7456 82.5384 82.5403C84.9481 80.1306 84.9481 76.2248 82.5384 73.8151L66.7242 58.0009Z" fill="#E6212B"/>
</svg>
